<svg xmlns="http://www.w3.org/2000/svg" width="90" height="14" viewBox="0 0 90 14"><defs><clipPath id="yduma"><path fill="#fff" d="M45.458.192l6.485 6.452a.504.504 0 0 1 0 .716L45.45 13.82a.51.51 0 0 1-.72 0l-6.486-6.45a.505.505 0 0 1 0-.718L44.737.192a.512.512 0 0 1 .72 0z"/></clipPath></defs><g><g><g><path d="M.103 7.007h29.995V8H.103z"/><path fill="#e4e4e4" d="M.103 7.007h29.995V8H.103z"/></g><g><path d="M60.094 7.007H90.09V8H60.094z"/><path fill="#e4e4e4" d="M60.094 7.007H90.09V8H60.094z"/></g><g><path fill="#cfcfcf" d="M45.458.192l6.485 6.452a.504.504 0 0 1 0 .716L45.45 13.82a.51.51 0 0 1-.72 0l-6.486-6.45a.505.505 0 0 1 0-.718L44.737.192a.512.512 0 0 1 .72 0z"/><path fill="#fff" d="M45.458.192l6.485 6.452a.504.504 0 0 1 0 .716L45.45 13.82a.51.51 0 0 1-.72 0l-6.486-6.45a.505.505 0 0 1 0-.718L44.737.192a.512.512 0 0 1 .72 0z"/><path fill="none" stroke="#e4e4e4" stroke-linecap="round" stroke-linejoin="round" stroke-miterlimit="50" stroke-width="2" d="M45.458.192l6.485 6.452a.504.504 0 0 1 0 .716L45.45 13.82a.51.51 0 0 1-.72 0l-6.486-6.45a.505.505 0 0 1 0-.718L44.737.192a.512.512 0 0 1 .72 0z" clip-path="url(&quot;#yduma&quot;)"/></g></g></g></svg>