<svg xmlns="http://www.w3.org/2000/svg" width="52" height="14" viewBox="0 0 52 14"><defs><clipPath id="enbca"><path fill="#fff" d="M7.361.148l6.487 6.487a.51.51 0 0 1 0 .72L7.354 13.85c-.199.199-.522.2-.72 0L.146 7.363a.51.51 0 0 1 0-.721L6.64.148a.51.51 0 0 1 .721 0z"/></clipPath></defs><g><g><g><path d="M22 7h30v1H22z"/><path fill="#e4e4e4" d="M22 7h30v1H22z"/></g><g><path fill="#cfcfcf" d="M7.361.148l6.487 6.487a.51.51 0 0 1 0 .72L7.354 13.85c-.199.199-.522.2-.72 0L.146 7.363a.51.51 0 0 1 0-.721L6.64.148a.51.51 0 0 1 .721 0z"/><path fill="#fff" d="M7.361.148l6.487 6.487a.51.51 0 0 1 0 .72L7.354 13.85c-.199.199-.522.2-.72 0L.146 7.363a.51.51 0 0 1 0-.721L6.64.148a.51.51 0 0 1 .721 0z"/><path fill="none" stroke="#cacaca" stroke-linecap="round" stroke-linejoin="round" stroke-miterlimit="50" stroke-width="2" d="M7.361.148l6.487 6.487a.51.51 0 0 1 0 .72L7.354 13.85c-.199.199-.522.2-.72 0L.146 7.363a.51.51 0 0 1 0-.721L6.64.148a.51.51 0 0 1 .721 0z" clip-path="url(&quot;#enbca&quot;)"/></g></g></g></svg>